<svg width="40" height="40" viewBox="0 0 40 40" fill="none" xmlns="http://www.w3.org/2000/svg">
<path d="M20 40C31.0457 40 40 31.0457 40 20C40 8.9543 31.0457 0 20 0C8.9543 0 0 8.9543 0 20C0 31.0457 8.9543 40 20 40Z" fill="#121212"/>
<path d="M12.71 8.20848H19.8193C22.861 8.20848 25.1631 8.63556 26.7256 9.48973C28.2881 10.3439 29.0693 11.8439 29.0693 13.9897C29.0693 14.8543 28.9287 15.6356 28.6475 16.3335C28.3766 17.0314 27.9808 17.6043 27.46 18.0522C26.9391 18.5001 26.3037 18.7918 25.5537 18.9272V19.0835C26.3141 19.2397 27.0016 19.5106 27.6162 19.896C28.2308 20.271 28.7204 20.8231 29.085 21.5522C29.46 22.271 29.6475 23.2293 29.6475 24.4272C29.6475 25.8126 29.3089 27.0001 28.6318 27.9897C27.9548 28.9793 26.986 29.7397 25.7256 30.271C24.4756 30.7918 22.986 31.0522 21.2568 31.0522H12.71V8.20848ZM17.5537 17.2554H20.3662C21.7725 17.2554 22.7464 17.0366 23.2881 16.5991C23.8298 16.1512 24.1006 15.4949 24.1006 14.6304C24.1006 13.7554 23.7777 13.1304 23.1318 12.7554C22.4964 12.3699 21.486 12.1772 20.1006 12.1772H17.5537V17.2554ZM17.5537 21.0991V27.0522H20.71C22.1683 27.0522 23.1839 26.771 23.7568 26.2085C24.3298 25.646 24.6162 24.8908 24.6162 23.9429C24.6162 23.3804 24.4912 22.8856 24.2412 22.4585C23.9912 22.0314 23.5693 21.6981 22.9756 21.4585C22.3923 21.2189 21.585 21.0991 20.5537 21.0991H17.5537Z" fill="white"/>
</svg>
