<svg width="32" height="32" viewBox="0 0 32 32" fill="none" xmlns="http://www.w3.org/2000/svg">
<path d="M21.3023 19.2954H20.2489L19.8756 18.9354C21.4756 17.0687 22.3023 14.5221 21.8489 11.8154C21.2223 8.10875 18.1289 5.14875 14.3956 4.69542C8.7556 4.00208 4.00893 8.74875 4.70227 14.3887C5.1556 18.1221 8.1156 21.2154 11.8223 21.8421C14.5289 22.2954 17.0756 21.4687 18.9423 19.8687L19.3023 20.2421V21.2954L24.9689 26.9621C25.5156 27.5087 26.4089 27.5087 26.9556 26.9621C27.5023 26.4154 27.5023 25.5221 26.9556 24.9754L21.3023 19.2954ZM13.3023 19.2954C9.98227 19.2954 7.30227 16.6154 7.30227 13.2954C7.30227 9.97541 9.98227 7.29542 13.3023 7.29542C16.6223 7.29542 19.3023 9.97541 19.3023 13.2954C19.3023 16.6154 16.6223 19.2954 13.3023 19.2954Z" fill="#FAFAFA"/>
</svg>
